<svg xmlns="http://www.w3.org/2000/svg" width="53.77" height="55.763" viewBox="0 0 53.77 55.763">
  <g id="Grupo_2190" data-name="Grupo 2190" transform="translate(-3.875 -10.75)">
    <path id="Trazado_17714" data-name="Trazado 17714" d="M11,.631A10.724,10.724,0,0,1,2.422,10.762l-1.953.4,1.953.4A10.724,10.724,0,0,1,11,21.69,10.281,10.281,0,0,1,19.282,11.6l2.246-.445-2.246-.445A10.281,10.281,0,0,1,11,.631Z" transform="translate(36.117 10.119)" fill="#f06060"/>
    <path id="Trazado_17715" data-name="Trazado 17715" d="M42,17.682a10.724,10.724,0,0,1-8.577,10.132l-1.953.4,1.953.4A10.724,10.724,0,0,1,42,38.741a10.281,10.281,0,0,1,8.284-10.085l2.246-.445-2.246-.445A10.281,10.281,0,0,1,42,17.682Z" transform="translate(-27.596 0.598)" fill="#f06060"/>
    <path id="Trazado_17716" data-name="Trazado 17716" d="M19.524,48.685a10.724,10.724,0,0,1-8.576,10.132l-1.953.4,1.953.4a10.724,10.724,0,0,1,8.576,10.132,10.281,10.281,0,0,1,8.284-10.085l2.246-.445-2.246-.445A10.281,10.281,0,0,1,19.524,48.685Z" transform="translate(15.939 -3.231)" fill="#f06060"/>
  </g>
</svg>
