<svg xmlns="http://www.w3.org/2000/svg" width="50.164" height="59.695" viewBox="0 0 50.164 59.695">
  <g id="Grupo_9720" data-name="Grupo 9720" transform="translate(-292.178 -44.786)">
    <path id="Trazado_17714" data-name="Trazado 17714" d="M8.959.631A8.647,8.647,0,0,1,2.043,8.8L.469,9.121l1.575.321a8.647,8.647,0,0,1,6.916,8.17,8.29,8.29,0,0,1,6.68-8.132l1.811-.359-1.811-.358A8.29,8.29,0,0,1,8.959.631Z" transform="translate(324.892 61.136)" fill="#f06060"/>
    <path id="Trazado_17715" data-name="Trazado 17715" d="M39.961,17.682a8.647,8.647,0,0,1-6.916,8.17l-1.575.321,1.575.321a8.647,8.647,0,0,1,6.916,8.17,8.29,8.29,0,0,1,6.68-8.132l1.811-.358-1.811-.358A8.29,8.29,0,0,1,39.961,17.682Z" transform="translate(260.707 27.105)" fill="#f06060"/>
    <path id="Trazado_17716" data-name="Trazado 17716" d="M17.485,48.685a8.647,8.647,0,0,1-6.916,8.17l-1.575.321,1.575.321a8.647,8.647,0,0,1,6.916,8.17,8.29,8.29,0,0,1,6.68-8.132l1.811-.358-1.811-.358A8.29,8.29,0,0,1,17.485,48.685Z" transform="translate(291.674 38.815)" fill="#f06060"/>
  </g>
</svg>
