<svg width="20" height="20" viewBox="0 0 20 20" fill="none" xmlns="http://www.w3.org/2000/svg">
<path d="M18.6749 3.15332H9.40088V4.69899H18.6749C19.1015 4.69899 19.4477 4.35276 19.4477 3.92615C19.4477 3.49955 19.1015 3.15332 18.6749 3.15332Z" fill="black"/>
<path d="M1.67274 4.69815H3.2184V6.24382C3.2184 6.67042 3.56463 7.01665 3.99124 7.01665H7.08257C7.50918 7.01665 7.85541 6.67042 7.85541 6.24382V1.60682C7.85541 1.18021 7.50918 0.833984 7.08257 0.833984H3.99124C3.56463 0.833984 3.2184 1.18021 3.2184 1.60682V3.15249H1.67274C1.24613 3.15249 0.899902 3.49871 0.899902 3.92532C0.899902 4.35192 1.24613 4.69815 1.67274 4.69815Z" fill="black"/>
<path d="M18.6753 9.33594H17.1296V10.8816H18.6753C19.1019 10.8816 19.4481 10.5354 19.4481 10.1088C19.4481 9.68217 19.1019 9.33594 18.6753 9.33594Z" fill="black"/>
<path d="M1.67274 10.8808H10.9467V12.4264C10.9467 12.853 11.293 13.1993 11.7196 13.1993H14.8109C15.2375 13.1993 15.5837 12.853 15.5837 12.4264V7.78944C15.5837 7.36283 15.2375 7.0166 14.8109 7.0166H11.7196C11.293 7.0166 10.9467 7.36283 10.9467 7.78944V9.3351H1.67274C1.24613 9.3351 0.899902 9.68133 0.899902 10.1079C0.899902 10.5345 1.24613 10.8808 1.67274 10.8808Z" fill="black"/>
<path d="M18.6749 15.5186H9.40088V17.0642H18.6749C19.1015 17.0642 19.4477 16.718 19.4477 16.2914C19.4477 15.8648 19.1015 15.5186 18.6749 15.5186Z" fill="black"/>
<path d="M7.08257 13.2002H3.99124C3.56463 13.2002 3.2184 13.5464 3.2184 13.973V15.5187H1.67274C1.24613 15.5187 0.899902 15.8649 0.899902 16.2915C0.899902 16.7181 1.24613 17.0644 1.67274 17.0644H3.2184V18.61C3.2184 19.0366 3.56463 19.3829 3.99124 19.3829H7.08257C7.50918 19.3829 7.85541 19.0366 7.85541 18.61V13.973C7.85541 13.5464 7.50918 13.2002 7.08257 13.2002Z" fill="black"/>
</svg>
