<svg width="132" height="28" viewBox="0 0 132 28" fill="none" xmlns="http://www.w3.org/2000/svg">
<rect x="0.147949" y="0.530273" width="131.382" height="27.0492" rx="13.493" fill="#F3B562"/>
<path d="M105.953 16.9276C107.359 16.9276 108.303 15.7433 108.303 13.5135C108.303 11.3022 107.378 10.1179 105.962 10.1179C105.25 10.1179 104.676 10.4047 104.241 10.9876C103.806 11.5612 103.594 12.4032 103.594 13.5135C103.594 14.6238 103.806 15.475 104.241 16.0579C104.676 16.6408 105.24 16.9276 105.953 16.9276ZM105.944 16.0764C105.046 16.0764 104.602 15.2159 104.602 13.4857C104.602 11.811 105.055 10.9691 105.953 10.9691C106.85 10.9691 107.294 11.8295 107.294 13.5412C107.294 15.2344 106.841 16.0764 105.944 16.0764ZM111.023 12.0979V16.8721H111.976V10.2011H111.087C110.986 10.9321 110.393 11.3669 109.496 11.3669H109.274V12.0979H111.023ZM115.018 13.1434V12.0053H113.899V13.1434H115.018ZM115.018 16.8721V15.7433H113.899V16.8721H115.018ZM118.593 16.0209C118.186 16.0209 117.742 16.0394 117.252 16.0856C117.316 15.8173 117.464 15.5675 117.77 15.2992C117.927 15.1604 118.047 15.0494 118.14 14.9753C118.242 14.8921 118.408 14.7718 118.639 14.6145L119.093 14.2999C120.027 13.6245 120.545 13.0138 120.545 12.0609C120.545 11.4872 120.351 11.0246 119.972 10.6638C119.592 10.3029 119.083 10.1179 118.454 10.1179C117.788 10.1179 117.252 10.3122 116.854 10.7008C116.456 11.0801 116.262 11.589 116.28 12.2181H117.242C117.196 11.4502 117.631 10.9691 118.399 10.9691C119.093 10.9691 119.546 11.3762 119.546 12.0701C119.546 12.7455 119.157 13.1526 118.38 13.7078L118.195 13.8373L117.575 14.2722C117.446 14.3739 117.279 14.522 117.066 14.7163C116.854 14.9106 116.696 15.0864 116.595 15.2529C116.4 15.5767 116.206 16.0949 116.206 16.6408V16.8721H120.629V16.0209H118.593ZM123.211 12.0979V16.8721H124.164V10.2011H123.276C123.174 10.9321 122.582 11.3669 121.685 11.3669H121.463V12.0979H123.211Z" fill="white"/>
<path fill-rule="evenodd" clip-rule="evenodd" d="M43.4268 2.84863H44.9724V25.2608H43.4268V2.84863ZM34.153 5.63198H35.6987V22.4025H34.153V5.63198ZM33.38 8.72324H31.8343V19.3111H33.38V8.72324ZM31.0618 10.5768H29.5161V17.5323H31.0618V10.5768ZM38.0173 6.6341H36.4717V21.3952H38.0173V6.6341ZM38.7904 7.95066H40.336V20.0841H38.7904V7.95066ZM42.6542 6.40503H41.1086V21.6299H42.6542V6.40503ZM47.2916 3.08097H45.7459V24.9522H47.2916V3.08097ZM48.0641 7.95066H49.6098V20.0841H48.0641V7.95066ZM51.9285 11.0419H50.3828V16.9927H51.9285V11.0419ZM52.701 13.1278H54.2467V14.9053H52.701V13.1278ZM56.5654 13.3601H55.0197V14.6739H56.5654V13.3601ZM57.3384 13.1278H58.884V14.9053H57.3384V13.1278ZM61.2023 13.3601H59.6566V14.6739H61.2023V13.3601ZM61.9748 13.3601H63.5205V14.6739H61.9748V13.3601ZM65.8391 13.3601H64.2935V14.6739H65.8391V13.3601ZM66.6122 13.3601H68.1578V14.6739H66.6122V13.3601ZM70.4765 13.1278H68.9308V14.9053H70.4765V13.1278ZM71.249 8.72324H72.7947V19.3111H71.249V8.72324ZM75.1134 12.3552H73.5677V15.6784H75.1134V12.3552ZM75.8864 12.3552H77.4321V15.6784H75.8864V12.3552ZM79.7503 13.3601H78.2046V14.6739H79.7503V13.3601ZM80.5233 13.3601H82.0689V14.6739H80.5233V13.3601ZM84.3872 13.3601H82.8415V14.6739H84.3872V13.3601ZM85.1602 13.3601H86.7058V14.6739H85.1602V13.3601ZM89.0245 13.3601H87.4788V14.6739H89.0245V13.3601ZM89.7971 13.3601H91.3427V14.6739H89.7971V13.3601ZM93.6609 13.3601H92.1153V14.6739H93.6609V13.3601Z" fill="white"/>
<path fill-rule="evenodd" clip-rule="evenodd" d="M13.6724 2.84766C19.8613 2.84766 24.8785 7.86479 24.8785 14.0537C24.8785 20.2427 19.8613 25.2598 13.6724 25.2598C7.48345 25.2598 2.46631 20.2427 2.46631 14.0537C2.46631 7.86479 7.48345 2.84766 13.6724 2.84766ZM13.6726 3.62021C7.91051 3.62021 3.23939 8.29133 3.23939 14.0535C3.23939 19.8156 7.91051 24.4867 13.6726 24.4867C19.4348 24.4867 24.1059 19.8156 24.1059 14.0535C24.1059 8.29133 19.4348 3.62021 13.6726 3.62021ZM11.39 18.8286C11.1727 18.9554 11.0097 19.0218 10.8044 19.0218C10.43 19.0218 10.4091 18.7516 10.4091 18.2988V9.71656C10.4091 9.26373 10.43 9.04554 10.8044 9.04554C10.9784 9.04554 11.122 9.12785 11.2942 9.22648C11.3251 9.2442 11.3569 9.26245 11.39 9.28085L17.5506 13.1514C17.5894 13.174 17.6309 13.1978 17.6742 13.2226C18.0825 13.4569 18.6524 13.7839 18.6524 14.0528C18.6524 14.3223 18.0447 14.6883 17.6613 14.9193C17.6217 14.9432 17.5845 14.9656 17.5506 14.9863L11.39 18.8286Z" fill="white"/>
</svg>
