<svg xmlns="http://www.w3.org/2000/svg" width="18.783" height="15.641" viewBox="0 0 18.783 15.641">
  <g id="Icon_feather-camera" data-name="Icon feather-camera" transform="translate(-0.75 -3.75)" style="mix-blend-mode: multiply;isolation: isolate">
    <path id="Trazado_18181" data-name="Trazado 18181" d="M18.783,17.069a1.571,1.571,0,0,1-1.571,1.571H3.071A1.571,1.571,0,0,1,1.5,17.069V8.428A1.571,1.571,0,0,1,3.071,6.857H6.214L7.785,4.5H12.5l1.571,2.357h3.142a1.571,1.571,0,0,1,1.571,1.571Z" transform="translate(0 0)" fill="none" stroke="#ada5a3" stroke-linecap="round" stroke-width="1.5"/>
    <path id="Trazado_18182" data-name="Trazado 18182" d="M18.285,16.642A3.142,3.142,0,1,1,15.142,13.5,3.142,3.142,0,0,1,18.285,16.642Z" transform="translate(-5.001 -4.286)" fill="none" stroke="#ada5a3" stroke-linecap="round" stroke-width="1.5"/>
  </g>
</svg>
