<svg width="9" height="10" viewBox="0 0 9 10" fill="none" xmlns="http://www.w3.org/2000/svg">
<path d="M7.26484 3.52725H6.81402V2.62438C6.81402 1.37841 5.80419 0.367188 4.55993 0.367188C3.31566 0.367188 2.30583 1.37841 2.30583 2.62438V3.52725H1.85501C1.35911 3.52725 0.953369 3.93354 0.953369 4.43013V8.9445C0.953369 9.44108 1.35911 9.84738 1.85501 9.84738H7.26484C7.76075 9.84738 8.16648 9.44108 8.16648 8.9445V4.43013C8.16648 3.93354 7.76075 3.52725 7.26484 3.52725ZM3.20747 2.62438C3.20747 1.87499 3.81157 1.27006 4.55993 1.27006C5.30829 1.27006 5.91239 1.87499 5.91239 2.62438V3.52725H3.20747V2.62438ZM7.26484 8.9445H1.85501V4.43013H7.26484V8.9445ZM4.55993 7.59019C5.05583 7.59019 5.46157 7.18389 5.46157 6.68731C5.46157 6.19073 5.05583 5.78444 4.55993 5.78444C4.06402 5.78444 3.65829 6.19073 3.65829 6.68731C3.65829 7.18389 4.06402 7.59019 4.55993 7.59019Z" fill="#A39999"/>
</svg>
