<svg width="12" height="13" viewBox="0 0 12 13" fill="none" xmlns="http://www.w3.org/2000/svg">
<path d="M6.75786 0.945309L6.7238 0.944353H6.44905C5.62799 0.942245 4.81646 1.13445 4.08217 1.50535C2.29286 2.3996 1.16073 4.23028 1.15996 6.23323L1.16418 6.45693C1.18823 7.05253 1.31432 7.63973 1.53643 8.19257L1.60761 8.36098L0.642168 11.2584L0.623993 11.3241C0.52292 11.7822 0.962824 12.1941 1.42414 12.0403L4.32091 11.0743L4.48996 11.1461C5.11194 11.396 5.77758 11.5243 6.45066 11.5226C8.45224 11.5218 10.2829 10.3897 11.1784 8.598C11.5481 7.86606 11.7403 7.05453 11.7382 6.23187V5.95871C11.589 3.23843 9.44409 1.09352 6.75786 0.945309ZM6.44745 2.18078L6.69792 2.18016L6.68974 2.17984C8.74672 2.29334 10.3892 3.9358 10.5027 5.99277L10.5017 6.23347C10.5034 6.863 10.3567 7.48243 10.0736 8.04291C9.38626 9.41808 7.98353 10.2856 6.44881 10.2861C5.81951 10.2878 5.20009 10.1411 4.63961 9.85798L4.56425 9.82599C4.43597 9.7813 4.2957 9.77987 4.16539 9.82331L2.20603 10.4765L2.85921 8.51712C2.91133 8.36075 2.89885 8.19004 2.82454 8.04291C2.54144 7.48243 2.39473 6.863 2.39637 6.23508C2.39696 4.69898 3.26444 3.29626 4.63726 2.61014C5.20008 2.32587 5.81951 2.17916 6.44745 2.18078Z" fill="#343434"/>
</svg>
