<svg width="107" height="15" viewBox="0 0 107 15" fill="none" xmlns="http://www.w3.org/2000/svg">
<path d="M14.8716 2.38768V10.2676H16.2768V7.60852H18.2225C19.0656 7.60852 19.7466 7.37072 20.2546 6.89511C20.7626 6.4087 21.022 5.78177 21.022 4.9927C21.022 4.21443 20.7734 3.5875 20.2654 3.1119C19.7574 2.62548 19.0764 2.38768 18.2225 2.38768H14.8716ZM16.2768 6.38708V3.66317H18.0279C18.3306 3.66317 18.5792 3.7064 18.9251 3.86854C19.2818 4.03068 19.5196 4.43062 19.5196 5.0035C19.5196 5.86824 19.0332 6.38708 18.0279 6.38708H16.2768ZM23.4178 10.2676V7.73823C23.4178 6.32223 24.0447 5.61963 25.2878 5.61963V4.44143C24.3798 4.44143 23.7745 4.84137 23.4827 5.65206H23.4178L23.2449 4.53871H22.0775V10.2676H23.4178ZM25.6149 7.41395C25.6149 8.2895 25.8743 9.0029 26.3931 9.55417C26.912 10.1054 27.5929 10.3757 28.436 10.3757C29.2792 10.3757 29.9601 10.1054 30.4682 9.55417C30.987 9.0029 31.2464 8.2895 31.2464 7.41395C31.2464 6.5276 30.987 5.81419 30.4682 5.26293C29.9601 4.71166 29.2792 4.43062 28.436 4.43062C27.5929 4.43062 26.912 4.71166 26.3931 5.26293C25.8743 5.81419 25.6149 6.5276 25.6149 7.41395ZM29.8737 7.39233C29.8737 8.5273 29.3332 9.24071 28.4252 9.24071C27.9713 9.24071 27.6145 9.07857 27.3551 8.74348C27.1065 8.4084 26.9768 7.96522 26.9768 7.40314C26.9768 6.84107 27.1065 6.39789 27.3659 6.0628C27.6254 5.72772 27.9821 5.56558 28.4252 5.56558C29.3332 5.56558 29.8737 6.27899 29.8737 7.39233ZM32.4222 12.0727H33.7625V9.21909H33.849C34.1192 9.92168 34.8326 10.3757 35.7514 10.3757C36.4756 10.3757 37.0593 10.1054 37.5025 9.57579C37.9457 9.04614 38.1619 8.31112 38.1619 7.39233C38.1619 6.48436 37.9457 5.76015 37.5133 5.2305C37.0918 4.70085 36.5081 4.43062 35.7622 4.43062C34.8867 4.43062 34.1408 4.8846 33.849 5.57639H33.7625L33.6112 4.53871H32.4222V12.0727ZM33.7625 7.14372C33.7625 6.68974 33.903 6.31142 34.1949 6.01957C34.4867 5.71691 34.8543 5.56558 35.2974 5.56558C36.2162 5.56558 36.7891 6.21413 36.7891 7.38153C36.7891 8.51649 36.2378 9.25151 35.2758 9.25151C34.3787 9.25151 33.7625 8.61377 33.7625 7.67337V7.14372ZM39.0313 7.41395C39.0313 8.2895 39.2907 9.0029 39.8096 9.55417C40.3284 10.1054 41.0094 10.3757 41.8525 10.3757C42.6956 10.3757 43.3766 10.1054 43.8847 9.55417C44.4035 9.0029 44.6629 8.2895 44.6629 7.41395C44.6629 6.5276 44.4035 5.81419 43.8847 5.26293C43.3766 4.71166 42.6956 4.43062 41.8525 4.43062C41.0094 4.43062 40.3284 4.71166 39.8096 5.26293C39.2907 5.81419 39.0313 6.5276 39.0313 7.41395ZM43.2901 7.39233C43.2901 8.5273 42.7497 9.24071 41.8417 9.24071C41.3877 9.24071 41.031 9.07857 40.7716 8.74348C40.523 8.4084 40.3933 7.96522 40.3933 7.40314C40.3933 6.84107 40.523 6.39789 40.7824 6.0628C41.0418 5.72772 41.3985 5.56558 41.8417 5.56558C42.7497 5.56558 43.2901 6.27899 43.2901 7.39233ZM45.4495 8.49487C45.4495 9.61903 46.3575 10.3757 47.9032 10.3757C49.3625 10.3757 50.3137 9.68388 50.3137 8.57054C50.3137 7.65176 49.7948 7.1113 48.7571 6.93835L47.7087 6.75459C47.4168 6.71136 47.2547 6.70055 47.0385 6.49517C46.9412 6.38708 46.8872 6.25737 46.8872 6.09523C46.8872 5.66286 47.2331 5.40344 47.8276 5.40344C48.4869 5.40344 48.822 5.67367 48.8436 6.21413H50.1515C50.1191 5.13321 49.2652 4.43062 47.8384 4.43062C46.444 4.43062 45.5468 5.10079 45.5468 6.22494C45.5468 7.10049 46.0873 7.63014 47.1574 7.81389L48.2707 8.01927C48.7139 8.09493 48.9301 8.30031 48.9301 8.65701C48.9301 9.1218 48.5626 9.39203 47.914 9.39203C47.1898 9.39203 46.7574 9.05695 46.7574 8.49487H45.4495ZM53.9488 10.3757C54.6514 10.3757 55.2351 10.2027 55.7107 9.85683C56.1971 9.51094 56.4889 9.05695 56.5862 8.49487H55.2567C55.127 8.98129 54.6189 9.32718 53.938 9.32718C53.03 9.32718 52.4895 8.74348 52.5003 7.7058H56.4997C56.5322 7.50043 56.5538 7.27343 56.5538 7.02482C56.5538 6.23575 56.316 5.60882 55.8404 5.14402C55.3756 4.66842 54.7378 4.43062 53.9271 4.43062C53.0948 4.43062 52.4247 4.70085 51.9166 5.25212C51.4086 5.79258 51.16 6.51679 51.16 7.41395C51.16 8.31112 51.4194 9.02452 51.9274 9.56498C52.4355 10.1054 53.1165 10.3757 53.9488 10.3757ZM52.5111 6.78702C52.5436 5.99795 53.084 5.4683 53.8947 5.4683C54.7162 5.4683 55.2026 5.95471 55.2134 6.78702H52.5111ZM59.7306 8.70025C59.7306 9.7055 60.4764 10.3757 61.6114 10.3757C62.4761 10.3757 63.2003 9.98654 63.4273 9.37042H63.503C63.5246 10.019 63.8921 10.3432 64.5947 10.3432C64.8001 10.3432 65.0163 10.3108 65.2649 10.2568V9.29475C65.2108 9.30556 65.146 9.31637 65.0703 9.31637C64.8649 9.31637 64.7569 9.18666 64.7569 8.91643V6.5276C64.7569 5.21969 63.9462 4.43062 62.4221 4.43062C61.0385 4.43062 60.0657 5.15483 59.9684 6.31142H61.2763C61.3087 5.80338 61.7195 5.47911 62.368 5.47911C63.0706 5.47911 63.4273 5.80338 63.4273 6.46274V6.84107H62.0221C60.6277 6.84107 59.7306 7.52205 59.7306 8.70025ZM61.0817 8.53811C61.0817 8.01927 61.4601 7.69499 62.2059 7.69499H63.4273V7.9436C63.4273 8.7651 62.8869 9.32718 62.0329 9.32718C61.4384 9.32718 61.0817 9.04614 61.0817 8.53811ZM72.43 8.22464C72.3544 8.84077 71.8679 9.25151 71.1653 9.25151C70.2898 9.25151 69.7385 8.61377 69.7385 7.41395C69.7385 6.27899 70.2358 5.56558 71.1762 5.56558C71.8139 5.56558 72.2895 5.87905 72.4192 6.5276H73.7596C73.7055 5.88986 73.4461 5.38183 72.9705 5.0035C72.4949 4.62518 71.9004 4.43062 71.1978 4.43062C70.3438 4.43062 69.6521 4.70085 69.144 5.25212C68.636 5.79258 68.3766 6.50598 68.3766 7.40314C68.3766 8.30031 68.6252 9.02452 69.1332 9.56498C69.6413 10.1054 70.3222 10.3757 71.1762 10.3757C71.9004 10.3757 72.5057 10.1811 72.9813 9.79197C73.4677 9.39203 73.7271 8.87319 73.7812 8.22464H72.43ZM76.2604 10.2676V7.21939C76.2604 6.22494 76.8224 5.56558 77.698 5.56558C78.487 5.56558 78.8762 6.01957 78.8762 6.92754V10.2676H80.2273V6.78702C80.2273 5.32778 79.5355 4.43062 78.2492 4.43062C77.3845 4.43062 76.6927 4.84137 76.3468 5.57639H76.2604V2.27959H74.92V10.2676H76.2604ZM81.2962 8.70025C81.2962 9.7055 82.042 10.3757 83.177 10.3757C84.0417 10.3757 84.7659 9.98654 84.9929 9.37042H85.0686C85.0902 10.019 85.4577 10.3432 86.1603 10.3432C86.3657 10.3432 86.5819 10.3108 86.8305 10.2568V9.29475C86.7764 9.30556 86.7116 9.31637 86.6359 9.31637C86.4305 9.31637 86.3224 9.18666 86.3224 8.91643V6.5276C86.3224 5.21969 85.5118 4.43062 83.9877 4.43062C82.6041 4.43062 81.6313 5.15483 81.534 6.31142H82.8419C82.8743 5.80338 83.2851 5.47911 83.9336 5.47911C84.6362 5.47911 84.9929 5.80338 84.9929 6.46274V6.84107H83.5877C82.1933 6.84107 81.2962 7.52205 81.2962 8.70025ZM82.6473 8.53811C82.6473 8.01927 83.0256 7.69499 83.7715 7.69499H84.9929V7.9436C84.9929 8.7651 84.4525 9.32718 83.5985 9.32718C83.004 9.32718 82.6473 9.04614 82.6473 8.53811ZM89.2863 10.2676V7.25182C89.2863 6.24656 89.8483 5.56558 90.7239 5.56558C91.513 5.56558 91.9021 6.01957 91.9021 6.93835V10.2676H93.2532V6.79783C93.2532 5.33859 92.5615 4.43062 91.2752 4.43062C90.4212 4.43062 89.7294 4.85218 89.3727 5.59801H89.2863L89.1241 4.53871H87.9459V10.2676H89.2863ZM94.2356 10.9053C94.2356 11.7592 95.0679 12.2889 96.7217 12.2889C98.5701 12.2889 99.651 11.716 99.651 10.5378C99.651 9.5866 98.9916 9.0029 97.8243 9.0029H96.4407C95.9543 9.0029 95.7165 8.86238 95.7165 8.57054C95.7165 8.34354 95.8462 8.19221 96.0948 8.13817C96.3326 8.19221 96.5812 8.21383 96.8298 8.21383C97.4892 8.21383 98.0296 8.04089 98.4404 7.7058C98.8511 7.35991 99.0565 6.90592 99.0565 6.35465C99.0565 5.80338 98.8619 5.36021 98.462 5.0035C98.5809 4.73328 99.0133 4.53871 99.4997 4.53871V3.49022C98.6241 3.49022 97.9215 3.9334 97.6945 4.61437C97.4243 4.49547 97.1 4.43062 96.7109 4.43062C96.0407 4.43062 95.5003 4.60356 95.0787 4.94946C94.6572 5.29535 94.4518 5.74934 94.4518 6.31142C94.4518 6.9924 94.7328 7.48962 95.3057 7.8247V7.90037C94.7977 8.0625 94.495 8.41921 94.495 8.89481C94.495 9.27313 94.722 9.59741 95.1003 9.72712V9.81359C94.5815 9.9433 94.2356 10.3757 94.2356 10.9053ZM95.7705 6.32223C95.7705 5.74934 96.1488 5.36021 96.7541 5.36021C97.3595 5.36021 97.7486 5.71691 97.7486 6.32223C97.7486 6.89511 97.3703 7.28424 96.7541 7.28424C96.1596 7.28424 95.7705 6.91673 95.7705 6.32223ZM95.4679 10.6567C95.4679 10.2568 95.7273 10.0622 96.2353 10.0622H97.6297C98.0945 10.0622 98.3215 10.2352 98.3215 10.5919C98.3215 11.0783 97.8134 11.3161 96.7866 11.3161C95.911 11.3161 95.4679 11.0999 95.4679 10.6567ZM102.854 10.3757C103.557 10.3757 104.14 10.2027 104.616 9.85683C105.102 9.51094 105.394 9.05695 105.491 8.49487H104.162C104.032 8.98129 103.524 9.32718 102.843 9.32718C101.935 9.32718 101.395 8.74348 101.406 7.7058H105.405C105.437 7.50043 105.459 7.27343 105.459 7.02482C105.459 6.23575 105.221 5.60882 104.746 5.14402C104.281 4.66842 103.643 4.43062 102.832 4.43062C102 4.43062 101.33 4.70085 100.822 5.25212C100.314 5.79258 100.065 6.51679 100.065 7.41395C100.065 8.31112 100.325 9.02452 100.833 9.56498C101.341 10.1054 102.022 10.3757 102.854 10.3757ZM101.416 6.78702C101.449 5.99795 101.989 5.4683 102.8 5.4683C103.621 5.4683 104.108 5.95471 104.119 6.78702H101.416Z" fill="#343434"/>
<path d="M13.9204 11.3485H105.881V11.889H13.9204V11.3485Z" fill="#343434"/>
<path d="M5.70764 4.91512L6.18164 5.38912L1.51373 10.057H1.03972V9.58303L5.70764 4.91512ZM7.56244 1.81348C7.43363 1.81348 7.29967 1.865 7.20178 1.96289L6.25893 2.90575L8.19101 4.83783L9.13387 3.89498C9.3348 3.69404 9.3348 3.36945 9.13387 3.16851L7.92825 1.96289C7.8252 1.85985 7.6964 1.81348 7.56244 1.81348ZM5.70764 3.45704L0.00927734 9.1554V11.0875H1.94136L7.63972 5.38912L5.70764 3.45704Z" fill="#343434"/>
</svg>
