<svg width="26" height="26" viewBox="0 0 26 26" fill="none" xmlns="http://www.w3.org/2000/svg">
<circle cx="12.9003" cy="12.6612" r="12.3653" fill="#FAF5F0"/>
<g clip-path="url(#clip0_4:14363)">
<path d="M12.9 6.47949C9.48712 6.47949 6.71729 9.24933 6.71729 12.6622C6.71729 16.075 9.48712 18.8448 12.9 18.8448C16.3128 18.8448 19.0826 16.075 19.0826 12.6622C19.0826 9.24933 16.3128 6.47949 12.9 6.47949ZM7.95382 12.6622C7.95382 12.285 8.00328 11.9141 8.08366 11.5616L11.039 14.517V15.1352C11.039 15.8153 11.5954 16.3718 12.2755 16.3718V17.565C9.84572 17.2559 7.95382 15.1785 7.95382 12.6622ZM16.5415 16.0008C16.3808 15.5 15.9233 15.1352 15.3668 15.1352H14.7486V13.2804C14.7486 12.9404 14.4704 12.6622 14.1303 12.6622H10.4207V11.4256H11.6572C11.9973 11.4256 12.2755 11.1474 12.2755 10.8074V9.57083H13.512C14.1921 9.57083 14.7486 9.01439 14.7486 8.33429V8.0808C16.5601 8.81036 17.8461 10.591 17.8461 12.6622C17.8461 13.9482 17.3453 15.1229 16.5415 16.0008Z" fill="black"/>
</g>
<defs>
<clipPath id="clip0_4:14363">
<rect width="14.8384" height="14.8384" fill="white" transform="translate(5.48071 5.24219)"/>
</clipPath>
</defs>
</svg>
