<svg width="19" height="20" viewBox="0 0 19 20" fill="none" xmlns="http://www.w3.org/2000/svg">
<path d="M17.8387 4.90487C17.9631 5.07628 17.9784 5.25589 17.8846 5.44372L12.2936 16.2012C12.2224 16.3364 12.1074 16.4218 11.9484 16.4574C11.8665 16.4745 11.7835 16.4694 11.6996 16.4421C11.6453 16.4245 11.5901 16.3929 11.5339 16.3473L8.14899 13.4875L5.15571 15.1918C5.03317 15.2666 4.90032 15.2807 4.75717 15.2342C4.68806 15.2118 4.6345 15.1834 4.59649 15.1493C4.51392 15.0842 4.45872 15.0022 4.43089 14.9031C4.40305 14.804 4.40517 14.7051 4.43725 14.6063L5.52472 11.2595L2.4941 8.69481C2.3339 8.56636 2.27929 8.39853 2.33024 8.19133C2.37798 7.994 2.50428 7.87404 2.70913 7.83145L17.34 4.72646C17.5464 4.67894 17.7127 4.73841 17.8387 4.90487ZM11.6999 15.1815L16.5193 5.91696L3.91147 8.59049L6.0698 10.4133L13.9973 7.75806L8.54043 12.5095L11.6999 15.1815Z" fill="#2B2B2B"/>
</svg>
