<svg width="26" height="26" viewBox="0 0 26 26" fill="none" xmlns="http://www.w3.org/2000/svg">
<circle cx="12.8995" cy="12.755" r="12.3653" fill="#FAF5F0"/>
<g clip-path="url(#clip0_4:14394)">
<path d="M15.9907 10.6954H15.4755V9.66498C15.4755 8.24297 14.3214 7.08887 12.8994 7.08887C11.4774 7.08887 10.3233 8.24297 10.3233 9.66498V10.6954H9.80803C9.24129 10.6954 8.77759 11.1591 8.77759 11.7259V16.8781C8.77759 17.4448 9.24129 17.9085 9.80803 17.9085H15.9907C16.5574 17.9085 17.0211 17.4448 17.0211 16.8781V11.7259C17.0211 11.1591 16.5574 10.6954 15.9907 10.6954ZM11.3537 9.66498C11.3537 8.80971 12.0441 8.11931 12.8994 8.11931C13.7546 8.11931 14.445 8.80971 14.445 9.66498V10.6954H11.3537V9.66498ZM15.9907 16.8781H9.80803V11.7259H15.9907V16.8781ZM12.8994 15.3324C13.4661 15.3324 13.9298 14.8687 13.9298 14.302C13.9298 13.7352 13.4661 13.2715 12.8994 13.2715C12.3326 13.2715 11.8689 13.7352 11.8689 14.302C11.8689 14.8687 12.3326 15.3324 12.8994 15.3324Z" fill="black"/>
</g>
<defs>
<clipPath id="clip0_4:14394">
<rect width="12.3653" height="12.3653" fill="white" transform="translate(6.71655 6.57324)"/>
</clipPath>
</defs>
</svg>
