<svg xmlns="http://www.w3.org/2000/svg" width="83.491" height="55.734" viewBox="0 0 83.491 55.734">
  <g id="LosCanales2" transform="translate(-0.001 -3.15)">
    <g id="Grupo">
      <text id="_" data-name="       " transform="matrix(1, 0.001, -0.001, 1, 0.02, 22.15)" font-size="25" font-family="Canela-MediumItalic, Canela" font-weight="500" font-style="italic"><tspan x="0" y="0" xml:space="preserve">       </tspan></text>
      <text id="C" transform="matrix(1, 0.001, -0.001, 1, 0.004, 52.84)" font-size="25" font-family="Canela-Regular, Canela" letter-spacing="-0.01em"><tspan x="0" y="0">C</tspan></text>
      <text id="a" transform="matrix(1, 0.001, -0.001, 1, 18.794, 52.85)" font-size="25" font-family="Canela-Regular, Canela" letter-spacing="-0.01em"><tspan x="0" y="0">a</tspan></text>
      <text id="n" transform="matrix(1, 0.001, -0.001, 1, 30.367, 52.856)" font-size="25" font-family="Canela-Regular, Canela"><tspan x="0" y="0">n</tspan></text>
      <text id="al" transform="matrix(1, 0.001, -0.001, 1, 44.158, 52.863)" font-size="25" font-family="Canela-Regular, Canela" letter-spacing="-0.01em"><tspan x="0" y="0">al</tspan></text>
      <text id="e" transform="matrix(1, 0.001, -0.001, 1, 61.384, 52.872)" font-size="25" font-family="Canela-Regular, Canela"><tspan x="0" y="0">e</tspan></text>
      <text id="s" transform="matrix(1, 0.001, -0.001, 1, 73.482, 52.879)" font-size="25" font-family="Canela-Regular, Canela"><tspan x="0" y="0">s</tspan></text>
    </g>
  </g>
</svg>
