<svg width="13" height="13" viewBox="0 0 13 13" fill="none" xmlns="http://www.w3.org/2000/svg">
<path d="M9.1177 0.948281C8.23485 0.990269 7.39731 1.36594 6.77129 2.00424L6.64787 2.12955L6.52531 2.00413C5.13915 0.591458 2.8868 0.591458 1.50064 2.00413C0.120882 3.41027 0.120882 5.68532 1.50064 7.09146L6.20705 11.8879C6.44941 12.1349 6.84729 12.1349 7.08965 11.8879L11.7961 7.09146C12.4592 6.41597 12.8312 5.50107 12.8312 4.5478C12.8312 3.59452 12.4592 2.67962 11.796 2.00403C11.131 1.32605 10.2271 0.944336 9.28372 0.944336L9.1177 0.948281ZM9.28372 2.18087C9.89406 2.18087 10.4801 2.42835 10.9134 2.87007C11.3492 3.31405 11.5946 3.91767 11.5946 4.5478C11.5946 5.17793 11.3492 5.78154 10.9136 6.22532L6.64787 10.5714L2.38324 6.22542C1.47539 5.30021 1.47539 3.79538 2.38324 2.87017C3.28468 1.95149 4.74126 1.95149 5.6427 2.87017L6.20705 3.44531C6.44941 3.6923 6.84729 3.6923 7.08965 3.44531L7.65399 2.87017C8.08732 2.42835 8.67339 2.18087 9.28372 2.18087Z" fill="#343434"/>
</svg>
