<svg width="11" height="12" viewBox="0 0 11 12" fill="none" xmlns="http://www.w3.org/2000/svg">
<path d="M6.91574 2.12349C6.7693 2.12349 6.63542 2.04075 6.56993 1.90977L6.1472 1.06431C6.08171 0.933324 5.94784 0.850586 5.80139 0.850586H1.33535C1.12183 0.850586 0.94873 1.02368 0.94873 1.23721V11.2836C0.94873 11.4972 1.12183 11.6703 1.33535 11.6703H1.83501C2.04854 11.6703 2.22163 11.4972 2.22163 11.2836V7.60172C2.22163 7.3882 2.39473 7.2151 2.60826 7.2151H5.16494C5.31139 7.2151 5.44526 7.29784 5.51075 7.42882L5.93348 8.27428C5.99897 8.40526 6.13285 8.488 6.27929 8.488H10.1089C10.3224 8.488 10.4955 8.3149 10.4955 8.10138V2.51011C10.4955 2.29659 10.3224 2.12349 10.1089 2.12349H6.91574ZM9.2226 6.82848C9.2226 7.042 9.0495 7.2151 8.83597 7.2151H6.91574C6.7693 7.2151 6.63542 7.13236 6.56993 7.00138L6.1472 6.15592C6.08171 6.02493 5.94784 5.9422 5.80139 5.9422H2.60826C2.39473 5.9422 2.22163 5.7691 2.22163 5.55557V2.51011C2.22163 2.29659 2.39473 2.12349 2.60826 2.12349H5.16494C5.31139 2.12349 5.44526 2.20623 5.51075 2.33721L5.93348 3.18267C5.99897 3.31365 6.13285 3.39639 6.27929 3.39639H8.83597C9.0495 3.39639 9.2226 3.56949 9.2226 3.78301V6.82848Z" fill="#343434"/>
</svg>
