<svg xmlns="http://www.w3.org/2000/svg" width="22.819" height="23.548" viewBox="0 0 22.819 23.548">
  <g id="Grupo_9724" data-name="Grupo 9724" transform="translate(-316.497 -36)">
    <path id="Sustracción_3" data-name="Sustracción 3" d="M6.5,14.5a2.8,2.8,0,0,1-2.717-2.1H.687a.669.669,0,0,1-.27-.056.678.678,0,0,1-.361-.894l1-2.323V5.409A5.453,5.453,0,0,1,8.562.4a3.2,3.2,0,0,0-.229,1.194c0,.067,0,.135.006.2A4.078,4.078,0,0,0,2.43,5.409V9.258a.671.671,0,0,1-.055.272l-.647,1.5h9.411l-.471-.816a.675.675,0,0,1-.09-.341V5.409a4.036,4.036,0,0,0-.073-.766,3.264,3.264,0,0,0,1.082.183c.11,0,.222-.006.332-.017a5.457,5.457,0,0,1,.033.6V9.691l.967,1.68a.68.68,0,0,1-.11.824.759.759,0,0,1-.485.2h-3.1a2.771,2.771,0,0,1-2.16,2.048A2.859,2.859,0,0,1,6.5,14.5Zm-1.247-2.1h0a1.423,1.423,0,0,0,2.494,0H5.257Z" transform="translate(317 44.551)" fill="#5c5c5c" stroke="rgba(0,0,0,0)" stroke-width="1"/>
    <ellipse id="Elipse_193" data-name="Elipse 193" cx="7.645" cy="7.644" rx="7.645" ry="7.644" transform="translate(324.027 36)" fill="#ef8225"/>
    <text id="_12" data-name="12" transform="translate(327.233 47)" fill="#fff" font-size="9" font-family="Poppins-Medium, Poppins" font-weight="500"><tspan x="0" y="0">12</tspan></text>
  </g>
</svg>
