<?xml version="1.0" encoding="UTF-8"?><svg id="Capa_2" xmlns="http://www.w3.org/2000/svg" viewBox="0 0 318.45 227.75"><defs><style>.cls-1{stroke:#000;stroke-miterlimit:10;stroke-width:3.9px;}</style></defs><g id="Capa_1-2"><path class="cls-1" d="m216.35,2.66c-38.75-4-73.36,8.95-94.96,35.53-1.33,1.64-1.08,4.05.56,5.38,1.64,1.33,4.05,1.09,5.38-.56,19.94-24.54,52.08-36.48,88.23-32.75,56.75,5.86,98.37,54.76,92.77,109-2.7,26.04-15.78,49.48-36.83,66.02-1.19.94-1.72,2.5-1.34,3.97l6.52,25.2-26.89-14.5c-1-.54-2.19-.6-3.25-.18-3.18,1.28-6.35,2.4-9.41,3.32-13.53,4.06-27.63,5.38-41.92,3.9-19.49-2.01-37.92-9.2-53.31-20.8-1.69-1.28-4.09-.93-5.36.75-1.27,1.69-.93,4.09.75,5.36,16.5,12.43,36.25,20.14,57.13,22.29,15.3,1.58,30.4.17,44.9-4.18,2.74-.82,5.56-1.79,8.39-2.88l33.03,17.81c.57.31,1.19.46,1.81.46.84,0,1.67-.28,2.36-.81,1.2-.94,1.73-2.5,1.34-3.97l-8.1-31.29c21.54-17.73,34.92-42.37,37.75-69.67,6.03-58.43-38.65-111.1-99.6-117.39Z"/><path class="cls-1" d="m16.38,191.8c-.56,1.41-.22,3.02.85,4.1.73.73,1.71,1.12,2.71,1.12.47,0,.94-.09,1.39-.26l25.7-10.05c1.91.92,3.85,1.76,5.78,2.52,10.58,4.18,21.85,6.3,33.48,6.3,15.67,0,30.97-3.94,44.23-11.4,1.84-1.03,2.5-3.37,1.46-5.21-1.04-1.84-3.36-2.5-5.21-1.46-12.12,6.81-26.12,10.42-40.48,10.42-10.67,0-20.99-1.94-30.68-5.77-2.24-.88-4.49-1.88-6.68-2.99-.98-.49-2.11-.54-3.12-.15l-19.11,7.47,5.9-15.04c.58-1.47.19-3.15-.98-4.22-14.2-13.02-22.02-30.24-22.02-48.49,0-38.15,34.4-69.18,76.68-69.18,9.49,0,18.73,1.54,27.47,4.57,1.99.69,4.17-.36,4.87-2.36.69-1.99-.36-4.17-2.36-4.87-9.55-3.32-19.64-5-29.98-5C39.78,41.86,1.95,76.33,1.95,118.7c0,19.58,8,38.06,22.59,52.32l-8.16,20.78Z"/><path class="cls-1" d="m135.44,173.91c-1.76,1.17-2.23,3.55-1.06,5.3.74,1.11,1.95,1.7,3.19,1.7.73,0,1.47-.21,2.12-.64,21.64-14.43,34.57-37.62,34.57-62.04,0-28.76-17.39-54.88-45.39-68.17-1.9-.91-4.19-.1-5.09,1.82-.91,1.91-.09,4.19,1.82,5.09,25.3,12.01,41.02,35.48,41.02,61.26,0,21.86-11.65,42.67-31.16,55.67Z"/></g></svg>