<?xml version="1.0" encoding="UTF-8"?><svg id="Capa_2" xmlns="http://www.w3.org/2000/svg" viewBox="0 0 303.01 311.39"><defs><style>.cls-1{fill:none;}.cls-1,.cls-2{stroke:#000;stroke-miterlimit:10;stroke-width:3.6px;}</style></defs><g id="Capa_1-2"><path class="cls-1" d="m151.51,200.03c41.2,0,74.73-33.53,74.73-74.73s-33.52-74.74-74.73-74.74-74.75,33.53-74.75,74.74,33.53,74.73,74.75,74.73Zm-14.66-125.89c0-1.95,1.58-3.53,3.53-3.53h21.22c1.95,0,3.53,1.58,3.53,3.53v103.86c0,1.95-1.58,3.53-3.53,3.53h-21.22c-1.95,0-3.53-1.58-3.53-3.53v-103.86Z"/><path class="cls-1" d="m53.88,150.7l1.81.55.54,1.81c2.04,6.82,4.86,13.45,8.38,19.7l.96,1.71-.94,1.72c-5.6,10.25-3.74,23.18,4.53,31.44,8.59,8.58,21.88,10.24,32.31,4.04l1.68-1,1.74.89c5.84,3,12,5.41,18.3,7.15l2.01.56.48,2.03c2.85,12.03,13.46,20.44,25.8,20.44s23.83-9.17,26.1-21.79l.37-2.06,1.98-.66c5.55-1.85,10.92-4.2,15.97-6.99l1.95-1.08,1.81,1.29c10.6,7.58,24.96,6.4,34.16-2.82,9.41-9.4,10.38-24.43,2.24-34.97l-1.36-1.76,1-1.99c2.44-4.81,4.46-9.81,6.03-14.84l.68-2.18,2.26-.28c13.26-1.64,23.26-12.95,23.27-26.32,0-13.36-10-24.68-23.27-26.32l-2.26-.28-.68-2.18c-1.56-5.02-3.58-10.01-6.03-14.85l-1-1.99,1.36-1.76c8.13-10.53,7.17-25.56-2.24-34.96-9.2-9.21-23.57-10.4-34.16-2.82l-1.81,1.29-1.95-1.08c-5.02-2.77-10.39-5.12-15.97-6.99l-1.99-.67-.37-2.06c-2.27-12.63-13.25-21.79-26.1-21.79s-22.95,8.4-25.8,20.44l-.48,2.03-2.01.56c-6.29,1.75-12.45,4.16-18.31,7.16l-1.74.89-1.67-1c-10.44-6.21-23.73-4.54-32.31,4.03-8.27,8.26-10.13,21.2-4.52,31.45l.94,1.72-.96,1.71c-3.51,6.24-6.33,12.86-8.38,19.69l-.54,1.81-1.81.55c-11.26,3.42-18.82,13.63-18.82,25.4s7.56,21.98,18.82,25.4Zm97.63-107.19c45.1,0,81.78,36.69,81.78,81.8s-36.69,81.79-81.78,81.79-81.81-36.69-81.81-81.79,36.7-81.8,81.81-81.8Z"/><rect class="cls-1" x="143.91" y="77.68" width="14.16" height="96.8"/><path class="cls-2" d="m50.02,156.84c1.95,6.1,4.48,12.05,7.53,17.71-5.98,12.68-3.38,28.07,6.62,38.06,10.41,10.4,26.27,12.76,39.19,6.07,5.15,2.53,10.52,4.63,16,6.27,4.27,14.14,17.2,23.84,32.12,23.84s28.96-10.62,32.61-25.54c4.59-1.63,9.05-3.58,13.32-5.82,13.2,8.2,30.28,6.33,41.4-4.81,11.38-11.37,13-29.25,4.15-42.45,1.87-3.89,3.49-7.88,4.84-11.91,15.65-3.02,27.19-16.81,27.2-32.96h0c0-16.16-11.54-29.95-27.2-32.97-1.34-4.02-2.96-8-4.84-11.9,8.86-13.2,7.24-31.08-4.14-42.45-11.13-11.14-28.21-13.01-41.4-4.81-4.25-2.23-8.72-4.18-13.32-5.82-3.65-14.92-17.04-25.54-32.61-25.54s-27.85,9.7-32.12,23.84c-5.47,1.64-10.84,3.74-16,6.27-12.92-6.7-28.78-4.33-39.19,6.06-10,9.99-12.59,25.39-6.62,38.07-3.05,5.66-5.58,11.6-7.53,17.71-13.25,4.84-22.02,17.29-22.02,31.55s8.77,26.71,22.02,31.54Zm3.86-56.95l1.81-.55.54-1.81c2.05-6.82,4.87-13.45,8.38-19.69l.96-1.71-.94-1.72c-5.6-10.26-3.74-23.19,4.52-31.45,8.59-8.58,21.87-10.25,32.31-4.03l1.67,1,1.74-.89c5.86-3,12.02-5.41,18.31-7.16l2.01-.56.48-2.03c2.85-12.03,13.46-20.44,25.8-20.44s23.83,9.17,26.1,21.79l.37,2.06,1.99.67c5.57,1.87,10.95,4.22,15.97,6.99l1.95,1.08,1.81-1.29c10.6-7.58,24.97-6.39,34.16,2.82,9.41,9.4,10.37,24.43,2.24,34.96l-1.36,1.76,1,1.99c2.44,4.84,4.47,9.83,6.03,14.85l.68,2.18,2.26.28c13.27,1.64,23.27,12.96,23.27,26.32,0,13.37-10.01,24.68-23.27,26.32l-2.26.28-.68,2.18c-1.56,5.04-3.59,10.03-6.03,14.84l-1,1.99,1.36,1.76c8.13,10.53,7.17,25.56-2.24,34.97-9.2,9.22-23.56,10.4-34.16,2.82l-1.81-1.29-1.95,1.08c-5.05,2.78-10.42,5.13-15.97,6.99l-1.98.66-.37,2.06c-2.27,12.63-13.25,21.79-26.1,21.79s-22.95-8.4-25.8-20.44l-.48-2.03-2.01-.56c-6.3-1.74-12.46-4.15-18.3-7.15l-1.74-.89-1.68,1c-10.43,6.2-23.72,4.54-32.31-4.04-8.27-8.26-10.13-21.19-4.53-31.44l.94-1.72-.96-1.71c-3.52-6.25-6.34-12.88-8.38-19.7l-.54-1.81-1.81-.55c-11.26-3.42-18.82-13.63-18.82-25.4s7.56-21.98,18.82-25.4Z"/><path class="cls-2" d="m151.51,207.09c45.1,0,81.78-36.69,81.78-81.79s-36.69-81.8-81.78-81.8-81.81,36.69-81.81,81.8,36.7,81.79,81.81,81.79Zm0-156.53c41.2,0,74.73,33.53,74.73,74.74s-33.52,74.73-74.73,74.73-74.75-33.53-74.75-74.73,33.53-74.74,74.75-74.74Z"/><path class="cls-2" d="m5.4,273.42l39.24-.71,17.87,34.96c.59,1.14,1.74,1.88,3.02,1.92.04,0,.08,0,.12,0,1.24,0,2.39-.65,3.03-1.71l41.31-68.92c1-1.67.46-3.84-1.21-4.84-1.66-1-3.84-.46-4.84,1.21l-38.04,63.46-15.97-31.25c-.61-1.2-1.73-1.98-3.21-1.92l-35.08.64,38.04-63.46c1-1.67.46-3.84-1.21-4.84-1.67-1-3.84-.46-4.84,1.21L2.3,268.08c-.66,1.1-.67,2.47-.03,3.58.64,1.11,1.74,1.83,3.12,1.76Z"/><path class="cls-2" d="m254.55,197.95c-1.68,1-2.22,3.17-1.21,4.84l38.04,63.46-35.09-.64c-1.52-.05-2.6.72-3.21,1.92l-15.96,31.25-38.06-63.46c-1-1.67-3.17-2.22-4.84-1.21-1.67,1-2.21,3.17-1.21,4.84l41.34,68.92c.64,1.07,1.79,1.71,3.03,1.71.04,0,.08,0,.12,0,1.28-.04,2.44-.78,3.02-1.92l17.85-34.96,39.25.71h.07c1.26,0,2.42-.67,3.05-1.76.64-1.11.63-2.48-.03-3.58l-41.31-68.92c-1-1.67-3.18-2.21-4.84-1.21Z"/><path class="cls-2" d="m140.38,181.53h21.22c1.95,0,3.53-1.58,3.53-3.53v-103.86c0-1.95-1.58-3.53-3.53-3.53h-21.22c-1.95,0-3.53,1.58-3.53,3.53v103.86c0,1.95,1.58,3.53,3.53,3.53Zm3.53-103.86h14.16v96.8h-14.16v-96.8Z"/></g></svg>