<?xml version="1.0" encoding="UTF-8"?><svg id="Capa_2" xmlns="http://www.w3.org/2000/svg" viewBox="0 0 318.92 306.56"><defs><style>.cls-1{stroke-linecap:round;}.cls-1,.cls-2{fill:none;stroke:#000;stroke-miterlimit:10;stroke-width:11.29px;}</style></defs><g id="Capa_1-2"><path class="cls-2" d="m173.92,216.78c0,31.19-16.95,58.4-42.15,72.93-.99.58-2,1.14-3.03,1.66-11.64,6.1-24.91,9.55-38.96,9.55s-27.33-3.45-38.99-9.55c-1.01-.54-2.02-1.08-3-1.66-25.2-14.53-42.15-41.74-42.15-72.93,0-46.47,37.66-84.14,84.14-84.14s84.14,37.67,84.14,84.14Z"/><circle class="cls-2" cx="136.95" cy="24.55" r="18.91"/><circle class="cls-2" cx="187.75" cy="93.14" r="18.91"/><circle class="cls-2" cx="294.37" cy="112.05" r="18.91"/><circle class="cls-2" cx="241.66" cy="233.48" r="18.91"/><line class="cls-1" x1="109.92" y1="112.05" x2="122.98" y2="63.85"/><line class="cls-1" x1="159.11" y1="140.71" x2="168.85" y2="125.34"/><line class="cls-1" x1="187.75" y1="189.91" x2="263.33" y2="132.64"/><line class="cls-1" x1="192.16" y1="226.81" x2="206.66" y2="229.11"/><path class="cls-1" d="m60.31,281.45v-24.9c0-5.05,4.1-9.15,9.15-9.15h39.19c5.05,0,9.15,4.1,9.15,9.15v24.9"/><circle class="cls-2" cx="89.06" cy="211.33" r="20.33"/></g></svg>