<?xml version="1.0" encoding="UTF-8"?><svg id="Capa_2" xmlns="http://www.w3.org/2000/svg" viewBox="0 0 227.5 319.78"><defs><style>.cls-1{stroke-linecap:round;}.cls-1,.cls-2{fill:none;stroke:#000;stroke-miterlimit:10;stroke-width:15.27px;}</style></defs><g id="Capa_1-2"><path class="cls-2" d="m212.37,261.54H15.16c-5.56,0-9.22-5.86-6.72-10.87l21.75-43.25c.49-1.04.79-2.2.79-3.36v-88.77c0-35.93,22.82-67.44,54.65-79.46,3.13-1.18,5.1-4.3,5.1-7.64v-12.44c0-4.48,3.63-8.1,8.1-8.1h29.79c4.48,0,8.1,3.63,8.1,8.1v12.29c0,3.32,1.99,6.4,5.11,7.53,31.88,11.51,54.7,42.08,54.7,77.89v90.6c0,1.16.24,2.32.8,3.36l21.75,43.25c2.44,5.01-1.16,10.87-6.72,10.87Z"/><path class="cls-1" d="m143.75,282.13c0,16.58-13.44,30.01-30.02,30.01s-29.97-13.44-29.97-30.01"/></g></svg>