<?xml version="1.0" encoding="UTF-8"?><svg id="Capa_2" xmlns="http://www.w3.org/2000/svg" viewBox="0 0 298.16 317.48"><defs><style>.cls-1{fill:none;}.cls-1,.cls-2{stroke:#000;stroke-miterlimit:10;stroke-width:3.98px;}</style></defs><g id="Capa_1-2"><path class="cls-1" d="m283.98,87.99c-1.13,0-2.26.43-3.13,1.29l-108.57,108.57,6.24,6.24,108.57-108.57c1.72-1.72,1.73-4.52,0-6.25-.86-.86-1.99-1.29-3.11-1.29Z"/><path class="cls-1" d="m17.32,218.56l108.57-108.57-6.24-6.24L11.08,212.32c-1.72,1.72-1.73,4.51,0,6.24.86.87,2,1.3,3.13,1.3s2.26-.43,3.12-1.29Z"/><path class="cls-1" d="m188.12,98.46l11.43-11.43c16.04-16.04,32.31-47.48,11.43-68.36-6.26-6.26-14.31-8.81-22.85-8.81-16.48,0-34.77,9.5-45.51,20.24l-11.43,11.43c-15.69,15.7-15.69,41.23,0,56.93,15.69,15.69,41.23,15.7,56.94,0Z"/><path class="cls-2" d="m155.24,241.27c-1.52-1.52-3.99-1.52-5.51,0l-48.18,48.17c-1.52,1.52-1.52,3.99,0,5.51.76.76,1.76,1.14,2.76,1.14s1.99-.38,2.76-1.14l48.17-48.18c1.52-1.52,1.52-3.99,0-5.51Z"/><path class="cls-2" d="m129.58,221.13l-48.18,48.18c-1.52,1.52-1.52,3.99,0,5.51.76.76,1.76,1.14,2.76,1.14s2-.38,2.76-1.14l48.18-48.18c1.52-1.52,1.52-3.99,0-5.51-1.52-1.52-3.99-1.52-5.51,0Z"/><path class="cls-2" d="m283.98,80.19c-3.26,0-6.33,1.27-8.64,3.57l-108.57,108.57c-1.37,1.37-2.09,3.12-2.23,4.91-18.01-12.47-40.7-12.68-54.11.74l-48.41,48.41-1.76,1.76c-1.52,1.52-1.52,3.99,0,5.51.76.76,1.76,1.14,2.76,1.14s2-.38,2.76-1.14l1.76-1.76,48.41-48.41c5.92-5.93,14.41-8.65,23.9-7.65,9.8,1.02,19.43,5.83,27.14,13.53,15.7,15.7,18.34,38.6,5.89,51.05l-48.41,48.41c-1.52,1.52-1.52,3.99,0,5.51.76.76,1.76,1.14,2.76,1.14s2-.38,2.76-1.14l48.41-48.41c13.42-13.42,13.21-36.1.74-54.11,1.79-.14,3.54-.86,4.91-2.23l108.57-108.57c4.76-4.77,4.76-12.52,0-17.28-2.3-2.3-5.37-3.57-8.62-3.57Zm3.11,15.33l-108.57,108.57-6.24-6.24,108.57-108.57c.86-.86,2-1.29,3.13-1.29s2.25.43,3.11,1.29c1.73,1.72,1.72,4.52,0,6.25Z"/><path class="cls-2" d="m22.83,224.08l108.57-108.58c1.42-1.42,2.15-3.26,2.25-5.12,7.89,5.08,16.94,7.64,26,7.64,12.3,0,24.61-4.68,33.98-14.05l11.43-11.43c18.26-18.25,36.36-54.46,11.43-79.39-22.17-22.17-60.35-7.61-79.39,11.43l-11.43,11.43c-16.26,16.27-18.38,41.38-6.41,59.97-1.92.1-3.75.88-5.12,2.25L5.57,206.8c-2.3,2.3-3.57,5.36-3.58,8.62,0,3.26,1.27,6.33,3.57,8.64,2.31,2.31,5.38,3.58,8.64,3.58s6.32-1.27,8.63-3.57ZM131.18,41.53l11.43-11.43c10.74-10.74,29.03-20.24,45.51-20.24,8.54,0,16.59,2.55,22.85,8.81,20.89,20.89,4.61,52.33-11.43,68.36l-11.43,11.43c-15.7,15.69-41.24,15.69-56.94,0-15.69-15.7-15.69-41.23,0-56.93ZM11.08,212.32l108.57-108.57,6.24,6.24L17.32,218.56c-.86.86-1.99,1.29-3.12,1.29s-2.26-.43-3.13-1.3c-1.72-1.72-1.72-4.51,0-6.24Z"/></g></svg>