<svg xmlns="http://www.w3.org/2000/svg" width="14.867" height="14.866" viewBox="0 0 14.867 14.866">
  <path id="Trazado_17793" data-name="Trazado 17793" d="M117.183,493.843h-.413a6.97,6.97,0,0,0-3.16.749,7.063,7.063,0,0,0-3.9,6.316l.007.3a6.978,6.978,0,0,0,.5,2.319l.095.224-1.289,3.871-.025.088a.826.826,0,0,0,1.069.956l3.87-1.29.226.1a7.071,7.071,0,0,0,9.683-6.565v-.365A7.061,7.061,0,0,0,117.183,493.843Zm-.414,1.65h.323a5.4,5.4,0,0,1,5.093,5.093v.322a5.321,5.321,0,0,1-.572,2.416,5.414,5.414,0,0,1-4.842,3,5.321,5.321,0,0,1-2.416-.573l-.1-.043a.828.828,0,0,0-.533,0l-2.618.872.874-2.617a.831.831,0,0,0-.047-.634,5.318,5.318,0,0,1-.572-2.414,5.411,5.411,0,0,1,2.994-4.842A5.325,5.325,0,0,1,116.769,495.493Z" transform="translate(-108.969 -493.842)"/>
</svg>
