<svg xmlns="http://www.w3.org/2000/svg" width="16.22" height="14.866" viewBox="0 0 16.22 14.866">
  <path id="fi-rs-users-alt" d="M4.1,7.11H1.939a.646.646,0,0,0-.646.646V9.7H0V7.756A1.939,1.939,0,0,1,1.939,5.817H4.872A3.863,3.863,0,0,0,4.1,7.11ZM14.281,5.817H11.348a3.863,3.863,0,0,1,.768,1.293h2.165a.646.646,0,0,1,.646.646V9.7H16.22V7.756A1.939,1.939,0,0,0,14.281,5.817ZM10.7,7.756A2.585,2.585,0,1,0,8.11,10.342,2.585,2.585,0,0,0,10.7,7.756Zm-1.293,0A1.293,1.293,0,1,1,8.11,6.463,1.293,1.293,0,0,1,9.4,7.756Zm2.585,5.171a1.939,1.939,0,0,0-1.939-1.939H6.171a1.939,1.939,0,0,0-1.939,1.939v1.939H5.524V12.927a.646.646,0,0,1,.646-.646h3.878a.646.646,0,0,1,.646.646v1.939h1.293ZM14.927,2.585a2.585,2.585,0,1,0-2.585,2.585,2.585,2.585,0,0,0,2.585-2.585Zm-1.293,0a1.293,1.293,0,1,1-1.293-1.293A1.293,1.293,0,0,1,13.634,2.585Zm-7.171,0A2.585,2.585,0,1,0,3.878,5.171,2.585,2.585,0,0,0,6.463,2.585Zm-1.293,0A1.293,1.293,0,1,1,3.878,1.293,1.293,1.293,0,0,1,5.171,2.585Z"/>
</svg>
