<svg xmlns="http://www.w3.org/2000/svg" width="17.722" height="16.702" viewBox="0 0 17.722 16.702">
  <g id="Layer_2" data-name="Layer 2" transform="translate(-1.38 -2)">
    <path id="Trazado_18194" data-name="Trazado 18194" d="M10.241,5.621,8.23,2H1.38l4.564,9.128a5.006,5.006,0,1,0,8.594,0L19.1,2h-6.85Zm-3-1.952L9.281,7.34,8.33,9.059a5.006,5.006,0,0,0-1.2.709l-3.045-6.1Zm3,13.35a3.337,3.337,0,1,1,0-6.675v1.11h0v-1.11h0a3.337,3.337,0,0,1,0,6.675ZM16.4,3.669l-3.045,6.1a5.006,5.006,0,0,0-2.9-1.093l2.787-5.006Z"/>
  </g>
</svg>
