<svg xmlns="http://www.w3.org/2000/svg" width="14.562" height="17.747" viewBox="0 0 14.562 17.747">
  <path id="Icon_material-notifications-none" data-name="Icon material-notifications-none" d="M13.281,21.5a1.826,1.826,0,0,0,1.82-1.82h-3.64A1.826,1.826,0,0,0,13.281,21.5Zm5.461-5.461V11.486c0-2.794-1.483-5.133-4.1-5.752V5.115a1.365,1.365,0,0,0-2.73,0v.619c-2.6.619-4.1,2.949-4.1,5.752v4.551L6,17.857v.91H20.562v-.91Zm-1.82.91H9.64V11.486c0-2.257,1.374-4.1,3.64-4.1s3.64,1.838,3.64,4.1Z" transform="translate(-6 -3.75)"/>
</svg>
