<svg xmlns="http://www.w3.org/2000/svg" width="17.227" height="17.225" viewBox="0 0 17.227 17.225">
  <path id="fi-br-restaurant" d="M8.652,10.093,1.834,16.91a1.077,1.077,0,1,1-1.52-1.526L7.132,8.57A4.669,4.669,0,0,1,7.8,2.829L10.369.308a1.076,1.076,0,1,1,1.507,1.537L9.314,4.357a2.5,2.5,0,0,0-.574,2.606l4.492-4.495a1.077,1.077,0,1,1,1.523,1.522L10.261,8.484A2.512,2.512,0,0,0,12.874,7.9l2.5-2.555a1.076,1.076,0,1,1,1.537,1.507L14.4,9.417a4.665,4.665,0,0,1-5.751.677Zm5.793,2.474a1.076,1.076,0,0,0-.81-.367,14.323,14.323,0,0,1-3.454-.28l-.287-.059a1.077,1.077,0,0,0-.415,2.113l.263.053a15.044,15.044,0,0,0,3.4.323l2.192,2.505a1.076,1.076,0,1,0,1.62-1.417ZM2.712,9.084A1.077,1.077,0,1,0,4.41,7.76a11.25,11.25,0,0,1-2.23-5.2L4.126,4.676A1.076,1.076,0,1,0,5.71,3.218L3.316.618A1.944,1.944,0,0,0,1.174.138,1.854,1.854,0,0,0,0,1.9v.25A12.765,12.765,0,0,0,2.712,9.084Z" transform="translate(0.003 0.001)"/>
</svg>
