<svg xmlns="http://www.w3.org/2000/svg" width="11.13" height="11.129" viewBox="0 0 11.13 11.129">
  <path id="Trazado_457" data-name="Trazado 457" d="M115.118,493.843h-.309a5.217,5.217,0,0,0-2.366.561,5.288,5.288,0,0,0-2.923,4.728l.005.223a5.224,5.224,0,0,0,.372,1.736l.071.168-.965,2.9-.019.066a.618.618,0,0,0,.8.716l2.9-.966.169.072a5.293,5.293,0,0,0,7.249-4.915v-.273A5.286,5.286,0,0,0,115.118,493.843Zm-.31,1.235h.242a4.042,4.042,0,0,1,3.813,3.813v.241a3.983,3.983,0,0,1-.428,1.809,4.053,4.053,0,0,1-3.625,2.244,3.984,3.984,0,0,1-1.809-.429l-.075-.032a.619.619,0,0,0-.4,0l-1.96.653.654-1.959a.622.622,0,0,0-.035-.475,3.981,3.981,0,0,1-.428-1.807A4.051,4.051,0,0,1,113,495.508,3.985,3.985,0,0,1,114.808,495.078Z" transform="translate(-108.969 -493.842)" fill="#343434"/>
</svg>
