<svg xmlns="http://www.w3.org/2000/svg" width="14.386" height="11.92" viewBox="0 0 14.386 11.92">
  <g id="Grupo_9701" data-name="Grupo 9701" transform="translate(-100.419 -405.907)">
    <path id="Trazado_458" data-name="Trazado 458" d="M72.024,494.619a3.523,3.523,0,0,0-2.346,1.056l-.123.125-.123-.125a3.508,3.508,0,0,0-5.025,0,3.643,3.643,0,0,0,0,5.087l4.706,4.8a.618.618,0,0,0,.883,0l4.706-4.8a3.642,3.642,0,0,0,0-5.087,3.519,3.519,0,0,0-2.512-1.06Z" transform="translate(39.066 -87.918)" fill="#f06060"/>
    <path id="Trazado_459" data-name="Trazado 459" d="M70.479,493.846a3.518,3.518,0,0,0-2.346,1.056l-.123.125-.123-.125a3.508,3.508,0,0,0-5.025,0,3.643,3.643,0,0,0,0,5.087l4.706,4.8a.618.618,0,0,0,.883,0l4.706-4.8a3.644,3.644,0,0,0,0-5.088,3.522,3.522,0,0,0-2.512-1.059Zm.166,1.232a2.282,2.282,0,0,1,1.63.69,2.406,2.406,0,0,1,0,3.355l-4.266,4.346-4.265-4.346a2.407,2.407,0,0,1,0-3.355,2.271,2.271,0,0,1,3.259,0l.564.575a.618.618,0,0,0,.883,0l.564-.575A2.282,2.282,0,0,1,70.645,495.078Z" transform="translate(38.592 -87.935)" fill="#343434"/>
  </g>
</svg>
